<?xml version="1.0" encoding="utf-8"?>
<svg width="340px" zoomAndPan="magnify" viewBox="18.649 160.541 340 47.027" height="47px" preserveAspectRatio="xMidYMid meet" version="1.0" xmlns="http://www.w3.org/2000/svg">
  <defs>
    <g/>
  </defs>
  <g fill="#545454" fill-opacity="1">
    <g transform="translate(21.800742, 202.696756)">
      <g>
        <path d="M 3.578125 0 L 3.578125 -36.8125 L 10.3125 -36.8125 L 10.3125 0 Z M 3.578125 0 "/>
      </g>
    </g>
  </g>
  <g fill="#545454" fill-opacity="1">
    <g transform="translate(43.834443, 202.696756)">
      <g>
        <path d="M 3.578125 0 L 3.578125 -36.8125 L 10.3125 -36.8125 L 27.609375 -10.890625 L 27.609375 -36.8125 L 34.34375 -36.8125 L 34.34375 0 L 27.609375 0 L 10.3125 -25.875 L 10.3125 0 Z M 3.578125 0 "/>
      </g>
    </g>
  </g>
  <g fill="#545454" fill-opacity="1">
    <g transform="translate(89.894561, 202.696756)">
      <g>
        <path d="M 16.140625 0.625 C 13.441406 0.625 11.054688 0.160156 8.984375 -0.765625 C 6.921875 -1.691406 5.289062 -3.019531 4.09375 -4.75 C 2.90625 -6.488281 2.296875 -8.601562 2.265625 -11.09375 L 9.359375 -11.09375 C 9.429688 -9.375 10.050781 -7.925781 11.21875 -6.75 C 12.394531 -5.582031 14.019531 -5 16.09375 -5 C 17.882812 -5 19.304688 -5.425781 20.359375 -6.28125 C 21.410156 -7.144531 21.9375 -8.296875 21.9375 -9.734375 C 21.9375 -11.234375 21.46875 -12.40625 20.53125 -13.25 C 19.601562 -14.09375 18.367188 -14.773438 16.828125 -15.296875 C 15.285156 -15.828125 13.640625 -16.390625 11.890625 -16.984375 C 9.046875 -17.960938 6.878906 -19.222656 5.390625 -20.765625 C 3.898438 -22.316406 3.15625 -24.367188 3.15625 -26.921875 C 3.125 -29.097656 3.640625 -30.96875 4.703125 -32.53125 C 5.773438 -34.09375 7.238281 -35.300781 9.09375 -36.15625 C 10.957031 -37.019531 13.097656 -37.453125 15.515625 -37.453125 C 17.972656 -37.453125 20.140625 -37.007812 22.015625 -36.125 C 23.890625 -35.25 25.359375 -34.019531 26.421875 -32.4375 C 27.492188 -30.863281 28.066406 -28.992188 28.140625 -26.828125 L 20.9375 -26.828125 C 20.894531 -28.117188 20.390625 -29.265625 19.421875 -30.265625 C 18.460938 -31.265625 17.125 -31.765625 15.40625 -31.765625 C 13.9375 -31.796875 12.703125 -31.4375 11.703125 -30.6875 C 10.703125 -29.9375 10.203125 -28.84375 10.203125 -27.40625 C 10.203125 -26.175781 10.585938 -25.203125 11.359375 -24.484375 C 12.128906 -23.765625 13.179688 -23.160156 14.515625 -22.671875 C 15.847656 -22.179688 17.375 -21.65625 19.09375 -21.09375 C 20.914062 -20.457031 22.578125 -19.71875 24.078125 -18.875 C 25.585938 -18.039062 26.796875 -16.929688 27.703125 -15.546875 C 28.617188 -14.160156 29.078125 -12.378906 29.078125 -10.203125 C 29.078125 -8.273438 28.585938 -6.484375 27.609375 -4.828125 C 26.628906 -3.179688 25.175781 -1.859375 23.25 -0.859375 C 21.320312 0.128906 18.953125 0.625 16.140625 0.625 Z M 16.140625 0.625 "/>
      </g>
    </g>
  </g>
  <g fill="#545454" fill-opacity="1">
    <g transform="translate(129.435489, 202.696756)">
      <g>
        <path d="M 20.828125 0.625 C 17.148438 0.625 13.929688 -0.175781 11.171875 -1.78125 C 8.421875 -3.394531 6.265625 -5.628906 4.703125 -8.484375 C 3.140625 -11.347656 2.359375 -14.65625 2.359375 -18.40625 C 2.359375 -22.15625 3.140625 -25.457031 4.703125 -28.3125 C 6.265625 -31.175781 8.421875 -33.414062 11.171875 -35.03125 C 13.929688 -36.644531 17.148438 -37.453125 20.828125 -37.453125 C 24.472656 -37.453125 27.679688 -36.644531 30.453125 -35.03125 C 33.222656 -33.414062 35.378906 -31.175781 36.921875 -28.3125 C 38.460938 -25.457031 39.234375 -22.15625 39.234375 -18.40625 C 39.234375 -14.65625 38.460938 -11.347656 36.921875 -8.484375 C 35.378906 -5.628906 33.222656 -3.394531 30.453125 -1.78125 C 27.679688 -0.175781 24.472656 0.625 20.828125 0.625 Z M 20.828125 -5.421875 C 24.335938 -5.421875 27.132812 -6.578125 29.21875 -8.890625 C 31.300781 -11.203125 32.34375 -14.375 32.34375 -18.40625 C 32.34375 -22.4375 31.300781 -25.609375 29.21875 -27.921875 C 27.132812 -30.242188 24.335938 -31.40625 20.828125 -31.40625 C 17.316406 -31.40625 14.507812 -30.242188 12.40625 -27.921875 C 10.300781 -25.609375 9.25 -22.4375 9.25 -18.40625 C 9.25 -14.375 10.300781 -11.203125 12.40625 -8.890625 C 14.507812 -6.578125 17.316406 -5.421875 20.828125 -5.421875 Z M 20.828125 -5.421875 "/>
      </g>
    </g>
  </g>
  <g fill="#545454" fill-opacity="1">
    <g transform="translate(179.175802, 202.696756)">
      <g>
        <path d="M 3.578125 0 L 3.578125 -36.8125 L 10.3125 -36.8125 L 10.3125 -5.265625 L 26.609375 -5.265625 L 26.609375 0 Z M 3.578125 0 "/>
      </g>
    </g>
  </g>
  <g fill="#545454" fill-opacity="1">
    <g transform="translate(216.298314, 202.696756)">
      <g>
        <path d="M 14.25 0 L 0.78125 -36.8125 L 8 -36.8125 L 18.40625 -6.890625 L 28.875 -36.8125 L 35.96875 -36.8125 L 22.515625 0 Z M 14.25 0 "/>
      </g>
    </g>
  </g>
  <g fill="#545454" fill-opacity="1">
    <g transform="translate(261.201794, 202.696756)">
      <g>
        <path d="M 3.578125 0 L 3.578125 -36.8125 L 10.3125 -36.8125 L 10.3125 0 Z M 3.578125 0 "/>
      </g>
    </g>
  </g>
  <g fill="#545454" fill-opacity="1">
    <g transform="translate(283.235509, 202.696756)">
      <g>
        <path d="M 3.578125 0 L 3.578125 -36.8125 L 27.34375 -36.8125 L 27.34375 -31.40625 L 10.3125 -31.40625 L 10.3125 -21.09375 L 24.09375 -21.09375 L 24.09375 -15.78125 L 10.3125 -15.78125 L 10.3125 0 Z M 3.578125 0 "/>
      </g>
    </g>
  </g>
  <g fill="#545454" fill-opacity="1">
    <g transform="translate(320.358035, 202.696756)">
      <g>
        <path d="M 13.09375 0 L 13.09375 -13.09375 L 0.734375 -36.8125 L 8.359375 -36.8125 L 16.515625 -19.828125 L 24.609375 -36.8125 L 32.140625 -36.8125 L 19.828125 -13.09375 L 19.828125 0 Z M 13.09375 0 "/>
      </g>
    </g>
  </g>
</svg>